<svg width="64" height="51" viewBox="0 0 64 51" fill="none" xmlns="http://www.w3.org/2000/svg">
<mask id="mask0_402_36" style="mask-type:alpha" maskUnits="userSpaceOnUse" x="2" y="0" width="59" height="48">
<path d="M17.5619 37.343C17.1673 36.9462 17.17 36.3064 17.568 35.9129L37.7939 15.9132C38.4405 15.2739 39.5409 15.7375 39.5292 16.6443L39.3849 27.8465C39.3814 28.1155 39.2704 28.3721 39.0765 28.5596L24.3764 42.7692C23.9758 43.1564 23.3363 43.1501 22.9435 42.7551L17.5619 37.343Z" fill="#CDD3E2"/>
<path d="M2.81049 22.7489L22.9902 42.7363C23.3885 43.1308 24.033 43.1295 24.4296 42.7332L29.6413 37.5262C30.0379 37.13 30.0365 36.4889 29.6382 36.0943L9.45853 16.107C9.06019 15.7124 8.41574 15.7138 8.01911 16.1101L2.80737 21.317C2.41075 21.7133 2.41214 22.3544 2.81049 22.7489Z" fill="#CDD3E2"/>
<path d="M2.79699 22.6726C2.40469 22.2792 2.40327 21.645 2.79381 21.2499L22.7499 1.05543C23.397 0.400546 24.5159 0.872085 24.4932 1.79013L24.2201 12.8323C24.2137 13.0924 24.1068 13.3402 23.9217 13.524L9.44692 27.8999C9.04819 28.2959 8.40192 28.2944 8.00512 27.8964L2.79699 22.6726Z" fill="#CDD3E2"/>
<path d="M43.5763 47.6608C43.1866 48.0358 42.5699 48.0413 42.1737 47.6731L31.8555 38.0863C31.4271 37.6882 31.4244 37.0132 31.8497 36.6118L37.244 31.5207C37.6331 31.1534 38.242 31.1496 38.6358 31.5121L43.3849 35.8837L48.9737 40.9701C49.4064 41.3639 49.4159 42.039 48.9945 42.4447L43.5763 47.6608Z" fill="#CDD3E2"/>
<path d="M33.0368 7.53093L53.1467 27.4492C53.545 27.8437 54.1894 27.8423 54.5861 27.4461L59.7978 22.2391C60.1944 21.8429 60.193 21.2018 59.7947 20.8072L39.6848 0.888989C39.2865 0.494439 38.642 0.495827 38.2454 0.892088L33.0337 6.09905C32.637 6.49531 32.6384 7.13638 33.0368 7.53093Z" fill="#CDD3E2"/>
<path d="M33.1435 38.0324C32.2553 38.0031 31.8288 36.9349 32.4546 36.3073L53.0965 15.608C53.4924 15.211 54.1367 15.2085 54.5357 15.6023L59.8258 20.8233C60.2248 21.2168 60.2274 21.8573 59.8324 22.2544L44.0944 38.0692C43.895 38.2696 43.6206 38.3782 43.3373 38.3689L33.1435 38.0324Z" fill="#CDD3E2"/>
<path d="M23.0107 16.1976C23.0123 15.9276 23.1222 15.6694 23.3161 15.4804L38.2505 0.918814C38.6497 0.529539 39.2899 0.533442 39.6843 0.927552L44.9012 6.14049C45.2978 6.53679 45.2964 7.17785 44.898 7.57237L24.6847 27.5901C24.0408 28.2277 22.9435 27.7705 22.9487 26.8667L23.0107 16.1976Z" fill="#CDD3E2"/>
</mask>
<g mask="url(#mask0_402_36)">
<ellipse cx="32.0834" cy="26.8184" rx="31.8071" ry="31.6406" fill="url(#paint0_linear_402_36)"/>
</g>
<defs>
<linearGradient id="paint0_linear_402_36" x1="8.67343" y1="-4.82227" x2="47.5893" y2="49.5401" gradientUnits="userSpaceOnUse">
<stop stop-color="#62BB51"/>
<stop offset="1" stop-color="#2E7128"/>
</linearGradient>
</defs>
</svg>
