<svg width="12" height="12" viewBox="0 0 12 12" fill="none" xmlns="http://www.w3.org/2000/svg">
<path d="M9.7262 1.37372L1.655 3.87451C1.50549 3.9142 1.37279 4.0011 1.27664 4.12228C1.1805 4.24346 1.12606 4.39245 1.12142 4.54707C1.11678 4.70169 1.16218 4.85367 1.25088 4.98041C1.33958 5.10714 1.46683 5.20184 1.61369 5.25043L5.27433 6.47699C5.28767 6.48207 5.29988 6.48973 5.31024 6.49955C5.3206 6.50937 5.32892 6.52114 5.3347 6.53419L6.68202 10.0296C6.73654 10.17 6.83277 10.2904 6.95776 10.3744C7.08274 10.4585 7.23049 10.5023 7.3811 10.4999H7.40017C7.55332 10.4994 7.70241 10.4506 7.82622 10.3605C7.95002 10.2703 8.04223 10.1434 8.08972 9.99781L10.6572 2.28887C10.6975 2.16545 10.7034 2.03339 10.6743 1.90687C10.6452 1.78036 10.5822 1.66415 10.492 1.57073C10.3956 1.4695 10.2727 1.39737 10.1373 1.36254C10.0019 1.32771 9.85949 1.33158 9.7262 1.37372Z" fill="#46A44E"/>
</svg>
