<svg width="10" height="10" viewBox="0 0 10 10" fill="none" xmlns="http://www.w3.org/2000/svg">
<path d="M7.77766 4.6098L3.32753 0.159755C3.2246 0.0567475 3.08721 0 2.9407 0C2.7942 0 2.6568 0.0567475 2.55388 0.159755L2.22616 0.487394C2.01291 0.700889 2.01291 1.04788 2.22616 1.26105L5.96304 4.99793L2.22201 8.73895C2.11908 8.84196 2.06226 8.97928 2.06226 9.1257C2.06226 9.27228 2.11908 9.4096 2.22201 9.51269L2.54973 9.84025C2.65274 9.94325 2.79005 10 2.93656 10C3.08306 10 3.22046 9.94325 3.32338 9.84025L7.77766 5.38614C7.88083 5.2828 7.93749 5.14484 7.93717 4.99817C7.93749 4.85094 7.88083 4.71305 7.77766 4.6098Z" fill="#CDD2DD"/>
</svg>
